<svg xmlns="http://www.w3.org/2000/svg" viewBox="0 0 38 42" fill-rule="evenodd" xmlns:v="https://vecta.io/nano"><path fill="#004482" d="M17.9.3c.7-.4 1.5-.4 2.2 0l16.8 9.4c.7.4 1.1 1.1 1.1 1.9v18.8c0 .8-.4 1.5-1.1 1.9l-16.8 9.4c-.7.4-1.5.4-2.2 0L1.1 32.3A2.1 2.1 0 0 1 0 30.4V11.6c0-.8.4-1.5 1.1-1.9L17.9.3z"/><path fill="#659ad2" d="M.3 31.4C0 31 0 30.7 0 30.3V11.5c0-.8.4-1.5 1-1.8L17.9.3c.7-.4 1.6-.4 2.3 0l16.7 9.3.7.6z"/><path fill="#fff" d="M19 7a14 14 0 1 1 0 28 14 14 0 0 1 0-28zm0 7a7 7 0 1 1 0 14 7 7 0 0 1 0-14z"/><path fill="#00599c" d="M37.5 10.2c.5.5.5 1.2.5 1.8v18.4c0 .4-.1.8-.3 1.1L18.6 21z"/></svg>