<svg xmlns="http://www.w3.org/2000/svg" viewBox="0 0 300 550" xmlns:v="https://vecta.io/nano"><path fill="#5382a1" d="M285 431h-2v-1h6v1h-2v6h-2v-6zm11 0-2 6h-1l-2-6v6h-1v-7h2l2 5 1-5h2v7h-1v-6zM103 291s-14 9 10 11c29 4 44 3 77-3l20 10c-73 31-164-2-107-18m-9-40s-16 11 8 14c32 3 56 3 99-5 0 0 6 6 16 10-88 25-186 2-123-19"/><path fill="#f8981d" d="M169 182c18 20-5 39-5 39s45-24 24-53c-19-27-34-41 47-88 0 0-127 32-66 102"/><path fill="#5382a1" d="M265 321s10 9-12 16c-42 12-174 16-211 0-13-6 11-14 19-15l13-2c-15-10-95 21-41 30 148 24 270-11 232-29M109 209s-67 16-23 21a506 506 0 0 0 145-8s-10 4-17 9c-69 18-201 10-163-9 32-15 58-13 58-13m121 67c70-36 38-71 15-66l-8 2 6-4c45-16 79 46-14 70l1-2"/><path fill="#f8981d" d="M188 4s39 39-36 98c-60 48-14 75 0 106-35-32-61-60-44-86 26-38 96-56 80-118"/><path fill="#5382a1" d="M116 374c67 5 170-2 172-34 0 0-4 12-55 22-57 10-127 9-169 2 0 0 8 7 52 10m-11 121c-6 6-13 9-19 9-8 0-13-6-13-14 0-9 5-15 25-15h7v20m18 20v-61c0-16-9-26-30-26-13 0-24 3-33 7l3 11c7-3 16-5 25-5 12 0 17 5 17 15v8h-6c-30 0-43 11-43 29 0 15 9 23 26 23 10 0 18-4 26-11l1 10h14zm58 0h-22l-26-85h19l16 52 4 16c8-23 14-46 17-68h18c-5 28-14 58-26 85m83-20c-6 6-13 9-19 9-8 0-13-6-13-14 0-9 5-15 25-15h7v20m17 20v-61c0-16-8-26-30-26-12 0-23 3-32 7l3 11c7-3 16-5 24-5 13 0 18 5 18 15v8h-6c-30 0-43 11-43 29 0 15 8 23 25 23 11 0 19-4 26-11l2 10h13zM37 529c-5 7-13 13-22 16l-8-10c6-3 12-9 15-14 2-4 3-10 3-25v-97h18v96c0 19-1 27-6 34"/></svg>