<svg xmlns="http://www.w3.org/2000/svg" viewBox="0 0 205.4 76.7" fill="#00acd7" xmlns:v="https://vecta.io/nano"><path d="M15.5 23.2c-.4 0-.5-.2-.3-.5l2.1-2.7c.2-.3.7-.5 1.1-.5h35.7c.4 0 .5.3.3.6l-1.7 2.6c-.2.3-.7.6-1 .6l-36.2-.1zM.4 32.4c-.4 0-.5-.2-.3-.5l2.1-2.7c.2-.3.7-.5 1.1-.5h45.6c.4 0 .6.3.5.6l-.8 2.4c-.1.4-.5.6-.9.6l-47.3.1zm24.2 9.2c-.4 0-.5-.3-.3-.6l1.4-2.5c.2-.3.6-.6 1-.6h20c.4 0 .6.3.6.7l-.2 2.4c0 .4-.4.7-.7.7l-21.8-.1zm103.8-20.2l-16.8 4.4c-1.5.4-1.6.5-2.9-1A13.4 13.4 0 0 0 104 21a17.4 17.4 0 0 0-18.1 1.5 21.3 21.3 0 0 0-10.2 19c.1 8 5.6 14.6 13.5 15.7 6.8.9 12.5-1.5 17-6.6l2.7-3.7H89.6c-2.1 0-2.6-1.3-1.9-3 1.3-3.1 3.7-8.3 5.1-10.9.3-.6 1-1.6 2.5-1.6h36.4c-.2 2.7-.2 5.4-.6 8.1a42.6 42.6 0 0 1-8.2 19.6 41.7 41.7 0 0 1-28.5 17 35.4 35.4 0 0 1-26.9-6.6 31.4 31.4 0 0 1-12.7-22.2A39.2 39.2 0 0 1 63.3 18 44.4 44.4 0 0 1 91.3.7c9.4-1.7 18.4-.6 26.5 4.9 5.3 3.5 9.1 8.3 11.6 14.1.6.9.2 1.4-1 1.7z"/><path d="M161.5 76.7a37.5 37.5 0 0 1-24.4-8.8 31.4 31.4 0 0 1-10.8-19.3 38.2 38.2 0 0 1 8.1-30.2 42 42 0 0 1 28-16.7 37 37 0 0 1 28.5 5.1A31.1 31.1 0 0 1 205 29.1 38.6 38.6 0 0 1 193.5 63a45.8 45.8 0 0 1-24 12.8c-2.7.5-5.4.6-8 .9zm23.8-40.4L185 33a16.5 16.5 0 0 0-20.4-13.3c-9.3 2.1-15.3 8-17.5 17.4-1.8 7.8 2 15.7 9.2 18.9 5.5 2.4 11 2.1 16.3-.6a21.9 21.9 0 0 0 12.7-19.1z"/></svg>