<svg xmlns="http://www.w3.org/2000/svg" xmlns:xlink="http://www.w3.org/1999/xlink" viewBox="0 0 442 271" xmlns:v="https://vecta.io/nano"><defs><path id="A" fill="url(#C)" d="M166 63a5 5 0 0 0-5 0l-42 24a5 5 0 0 0-3 4v49a5 5 0 0 0 3 4l42 25a5 5 0 0 0 5 0l42-25a5 5 0 0 0 3-4V91a5 5 0 0 0-3-4z"/><path id="B" d="m208 144-42 25a5 5 0 0 1-2 0l1 2 47-27v-1l-1-2a5 5 0 0 1-3 3z"/><linearGradient id="C" x1="180.7" x2="142.6" y1="80.7" y2="158.4" gradientUnits="userSpaceOnUse"><stop offset="0" stop-color="#3f873f"/><stop offset=".3" stop-color="#3f8b3d"/><stop offset=".6" stop-color="#3e9637"/><stop offset=".9" stop-color="#3da92e"/><stop offset="1" stop-color="#3dae2b"/></linearGradient><linearGradient id="D" x1="157.2" x2="264" y1="121.3" y2="42.4" gradientUnits="userSpaceOnUse"><stop offset=".1" stop-color="#3f873f"/><stop offset=".4" stop-color="#529f44"/><stop offset=".7" stop-color="#63b649"/><stop offset=".9" stop-color="#6abf4b"/></linearGradient><linearGradient id="E" x1="114.6" x2="212" y1="53.8" y2="53.8" gradientUnits="userSpaceOnUse"><stop offset=".1" stop-color="#6abf4b"/><stop offset=".3" stop-color="#63b649"/><stop offset=".6" stop-color="#529f44"/><stop offset=".9" stop-color="#3f873f"/></linearGradient><linearGradient xlink:href="#E" id="F" x1="114.9" x2="212.3" y1="115.7" y2="115.7"/><linearGradient xlink:href="#E" id="G" y1="143.4" y2="143.4"/><linearGradient xlink:href="#E" id="H" x1="114.9" x2="212.3" y1="156" y2="156"/><linearGradient xlink:href="#C" id="I" x1="226.5" x2="166.4" y1="78.4" y2="201"/><clipPath id="J"><use xlink:href="#A" clip-rule="evenodd"/></clipPath></defs><path d="M219 271a8 8 0 0 1-5-1l-13-8c-2-1-1-2 0-2a26 26 0 0 0 6-3 1 1 0 0 1 1 1l10 6a1 1 0 0 0 1 0l40-23a1 1 0 0 0 1-1v-47a1 1 0 0 0-1-1l-40-23a1 1 0 0 0-1 0l-40 23a1 1 0 0 0-1 1v46a1.118 1.118 0 0 0 1 2l11 6c6 3 10-1 10-4v-46a1 1 0 0 1 1-1h5a1 1 0 0 1 1 1v46c0 8-4 12-12 12l-9-2-11-6a9 9 0 0 1-4-7v-47a8 8 0 0 1 4-7l40-23a9 9 0 0 1 9 0l40 23a8 8 0 0 1 4 7v46a9 9 0 0 1-4 8l-40 23a8 8 0 0 1-4 1zm12-32c-17 0-21-8-21-15a1 1 0 0 1 1-1h5a1 1 0 0 1 1 1c1 5 3 8 14 8 8 0 12-2 12-6 0-3-1-5-14-6-11-1-18-4-18-12s7-13 18-13c13 0 19 4 20 14a1 1 0 0 1 0 1 1 1 0 0 1-1 0h-5a1 1 0 0 1-1-1c-1-5-4-7-13-7s-10 3-10 6c0 2 1 3 14 5s18 4 18 13-7 13-20 13zm58-48a8 8 0 1 1-8-8 8 8 0 0 1 8 8zm-15 0a7 7 0 1 0 7-7 7 7 0 0 0-7 7zm4-5h3c1 0 3 0 3 3a2 2 0 0 1-2 2c2 0 2 1 2 2a9 9 0 0 0 0 2h-2v-3h-2v3h-2zm2 4h1a1 1 0 0 0 1-1l-1-1h-1z" fill="#679e63"/><g fill-rule="evenodd"><path fill="#333" d="M95 91a5 5 0 0 0-3-5L50 62a5 5 0 0 0-2-1h-1a5 5 0 0 0-2 1L3 86a5 5 0 0 0-3 5v65a3 3 0 0 0 1 2 3 3 0 0 0 3 0l25-14a5 5 0 0 0 3-4v-31a5 5 0 0 1 2-4l11-7a5 5 0 0 1 3 0 5 5 0 0 1 2 0l11 6a5 5 0 0 1 2 5v31a5 5 0 0 0 3 4l25 14a3 3 0 0 0 3 0 3 3 0 0 0 1-2zM299 0a3 3 0 0 0-4 3v65a2 2 0 0 1-1 1 2 2 0 0 1-2 0l-10-6a5 5 0 0 0-5 0l-43 25a5 5 0 0 0-2 4v49a5 5 0 0 0 2 4l42 25a5 5 0 0 0 5 0l43-25a5 5 0 0 0 2-4V19a5 5 0 0 0-2-5zm-4 125a1 1 0 0 1-1 1l-14 8a1 1 0 0 1-2 0l-14-8a1 1 0 0 1-1-1v-17a1 1 0 0 1 1-1l14-9a1 1 0 0 1 2 0l14 9a1 1 0 0 1 1 1zm145-17a5 5 0 0 0 2-5V91a5 5 0 0 0-2-4l-42-25a5 5 0 0 0-5 0l-43 25a5 5 0 0 0-2 4v49a5 5 0 0 0 2 5l42 24a5 5 0 0 0 5 0l26-15a3 3 0 0 0 0-4l-43-24a3 3 0 0 1-1-3v-15a3 3 0 0 1 1-2l13-8a3 3 0 0 1 3 0l13 8a3 3 0 0 1 2 2v12a3 3 0 0 0 3 2z"/><path fill="#679e63" d="M395 105a1 1 0 0 1 1 0l8 5a1 1 0 0 1 0 1v9a1 1 0 0 1 0 1l-8 5a1 1 0 0 1-1 0l-9-5a1 1 0 0 1 0-1v-9a1 1 0 0 1 0-1z"/><use xlink:href="#A"/></g><g clip-path="url(#J)"><path fill="url(#D)" d="m208 87-42-24a5 5 0 0 0-1-1l-48 81a6 6 0 0 0 2 1l42 25a5 5 0 0 0 4 0l45-81a6 6 0 0 0-2-1z"/><path fill="url(#E)" d="M159 54h1-1z"/><path fill="url(#F)" d="M208 144a5 5 0 0 0 3-3l-46-79a5 5 0 0 0-4 1l-42 24 45 82a5 5 0 0 0 2 0z"/><path fill="url(#G)" d="M212 144v-1 1z"/><use xlink:href="#B" fill="url(#H)"/><use xlink:href="#B" fill="url(#I)"/></g></svg>