<svg xmlns="http://www.w3.org/2000/svg" viewBox="0 0 110 110" xmlns:v="https://vecta.io/nano"><defs><linearGradient id="A" x1="89.1" x2="147.8" y1="111.9" y2="168.1" gradientUnits="userSpaceOnUse"><stop offset="0" stop-color="#ffe052"/><stop offset="1" stop-color="#ffc331"/></linearGradient><linearGradient id="B" x1="55.5" x2="110.1" y1="77.1" y2="131.9" gradientUnits="userSpaceOnUse"><stop offset="0" stop-color="#387eb8"/><stop offset="1" stop-color="#366994"/></linearGradient></defs><g transform="translate(-45 -67)"><path fill="url(#B)" d="M100 67c-28 0-27 13-27 13l1 12h26v4H63s-18-2-18 26c0 29 16 28 16 28h9v-14s-1-15 15-15h27s15 0 15-15V82s2-15-27-15zm-15 9a5 5 0 1 1 0 10 5 5 0 0 1 0-10z"/><path fill="url(#A)" d="M101 177c28 0 26-12 26-12v-12h-27v-4h37s18 2 18-26c0-29-15-28-15-28h-10v13s1 16-15 16H88s-14 0-14 14v25s-3 14 27 14zm14-8a5 5 0 1 1 0-10 5 5 0 0 1 0 10z"/></g></svg>