<svg xmlns="http://www.w3.org/2000/svg" xmlns:xlink="http://www.w3.org/1999/xlink" viewBox="0 0 927 534"><path fill="#f2f2f2" d="m652 279-60 28 53-39a295 295 0 0 0-29-37l-256 63 231-88c-10-9-21-18-33-26l-391 63c-41 52-64 117-64 183h588a293 293 0 0 0-39-147zM526 162a294 294 0 0 0-355 76l355-76z"/><g fill="#2f2e41"><path d="M472 168c-10 30-25 57-56 57s-56-26-57-57c-3-40 24-57 57-57 38 0 68 22 56 57z"/><path d="M369 160h93v136h-93z"/></g><use xlink:href="#a" fill="#ffb8b8"/><use xlink:href="#a" opacity=".1"/><use xlink:href="#b" fill="#00bfa6"/><use xlink:href="#b" opacity=".1"/><circle cx="413.1" cy="208.5" r="44.7" fill="#ffb8b8"/><path fill="#3f3d56" d="M461 280s-16 15-34 12-25-25-25-25l-18 13s-5 36 18 40 56 5 63 0-4-40-4-40z"/><path fill="#00bfa6" d="m515 333-2 9-41 131H299l1-5c2-19 1-66 1-69 0-4 17-102 21-109a6 6 0 0 1 2-2 473 473 0 0 1 44-12h1a450 450 0 0 1 20-4c1 0 2 1 2 3 2 5 1 17 1 17a30 30 0 0 0 5 4 74 74 0 0 0 24 11c4 2 9 2 13 3h11c10-2 14-9 16-14l1-3 1-4c2 0 25 20 40 33l12 11z"/><path d="m513 342-41 131h-16c2-2 2-5 2-7-1-4 11-41 22-76l19-61 9 5 5 8z" opacity=".1"/><path fill="#00bfa6" d="M541 461c-2 0-1 6-2 12h-77a11 11 0 0 0 3-8c-1-4 7-40 15-75l14-64 1-3h1l19 10s31 58 21 72-10 14-6 21 15 34 11 35z"/><g fill="#2f2e41"><circle cx="415.5" cy="100.5" r="22.5"/><path d="M389 88a22 22 0 0 1 20-22 23 23 0 0 0-2 0 22 22 0 0 0-23 22 22 22 0 0 0 23 23 23 23 0 0 0 2 0 22 22 0 0 1-20-23zm10 64s0-2-19 4-29 58-20 88c4 12 1 21-4 27a44 44 0 0 0 15 68l3 1 11 7s-14-19-7-44c6-21 7-43 2-64a232 232 0 0 0-3-11c-9-33-4-29 28-61 0 0 18 14 34 21s30 13 19 36-39 44-21 74 21 18 18 30l-2 11 14-14-9 19s29 0 39-23l4 4s18-32-16-62c0 0-11-6 5-29s3-73-17-82-74 0-74 0z"/></g><path fill="#3f3d56" d="m413 297-38 66h9v9l43-75h-14z"/><path fill="#f2f2f2" d="M757 429h155v61H757zm20 78h116v10H777zm0 18h116v8H777z"/><g fill="#00bfa6"><circle cx="16" cy="12" r="4"/><circle cx="27" cy="12" r="4"/><circle cx="38" cy="12" r="4"/></g><g fill="#2f2e41"><path d="M927 534H0V0h927zM2 532h923V2H2z"/><path d="M1 20h925v2H1zm11 17h30v2H12zm0 8h30v2H12zm0 8h30v2H12zm627 2H267V37h372zm-370-2h368V39H269zm355-4a4 4 0 1 1 4-4c0 2-2 3-4 4zm0-6a2 2 0 1 0 2 2c0-2-1-2-2-2z"/><path d="m625 47 2-1 4 4-2 1zm238 8h-20V37h20zm-18-2h16V39h-16zm43 2h-20V37h20zm-18-2h16V39h-16zm43 2h-20V37h20zm-18-2h16V39h-16z"/></g><path fill="#ff6584" d="M665 485h18v16h-18z"/><path fill="#f2f2f2" d="M690 485h18v16h-18zm25 0h18v16h-18z"/><path fill="#2f2e41" d="M732 474H50V86h682zm-680-2h678V88H52z"/><path fill="#3f3d56" d="M154 438v10l-16-10a1 1 0 0 0-1 1v20a1 1 0 0 0 1 1l16-10v10h5v-22h-5zm-42 22h-4a1 1 0 0 1-1-1v-20a1 1 0 0 1 1-1h4a1 1 0 0 1 1 1v20a1 1 0 0 1-1 1zm12 0h-4a1 1 0 0 1-1-1v-20a1 1 0 0 1 1-1h4a1 1 0 0 1 1 1v20a1 1 0 0 1-1 1z"/><path fill="#00bfa6" d="M79 439v20a1 1 0 0 0 1 1l16-10a1 1 0 0 0 0-1l-16-11a1 1 0 0 0-1 1z"/><path fill="#2f2e41" d="M83 424h617v4H83z"/><path fill="#00bfa6" d="M83 424h107v4H83z"/><path fill="#f2f2f2" d="M51 487h283v11H51zm0 25h62v11H51zm706-405h155v61H757zm20 78h116v10H777zm0 18h116v10H777zm0 18h116v10H777zm-20 47h155v61H757zm20 78h116v10H777zm0 18h116v10H777zm0 18h116v10H777z"/><g fill="#ff6584"><path d="m662 426-2-2c-8-5-12-9-13-14a7 7 0 0 1 7-8l6 2c1-2 3-3 6-3a7 7 0 0 1 8 7c0 5-4 9-10 16z"/><use xlink:href="#c"/><use xlink:href="#c" x="-10" y="67"/></g><defs><path id="a" d="M401 238s3 43-4 50 62 13 61 5-14-60-10-71-47 16-47 16z"/><path id="b" d="m336 347-36 121-1 5h-60c23-74 82-183 82-183l10-2z"/><path id="c" d="m686 400-1-2c-4-9-6-14-5-19a7 7 0 0 1 10-4c2 1 4 3 4 5h7a7 7 0 0 1 4 9c-2 5-8 7-16 10z"/></defs></svg>