<svg xmlns="http://www.w3.org/2000/svg" viewBox="0 0 256 256" fill-rule="evenodd" xmlns:v="https://vecta.io/nano"><circle cx="128" cy="128" r="128" fill="#2b2e3a"/><g fill="#9feaf9" fill-rule="nonzero"><path d="M100.5 71.7c-26-4.7-46.6.2-54.8 14.4-6 10.6-4.3 24.6 4.3 39.7a2.7 2.7 0 1 0 4.6-2.7c-7.7-13.5-9.3-25.6-4.2-34.3C57.2 77 75.5 72.6 99.5 76.9a2.7 2.7 0 0 0 1-5.2zm-37 72.3a166.9 166.9 0 0 0 39.8 31.4c37.7 21.8 77.8 27.6 97.6 14a2.7 2.7 0 1 0-3-4.3c-17.7 12-55.8 6.5-92-14.3a161.6 161.6 0 0 1-38.5-30.4 2.7 2.7 0 1 0-3.9 3.6zm131.1-3.2c17-20.2 23-40.4 14.8-54.6-6-10.4-18.7-15.9-35.6-16.1a2.7 2.7 0 0 0-.1 5.3c15.2.2 26.2 5 31.1 13.5 6.8 11.8 1.5 29.8-14.3 48.4a2.7 2.7 0 1 0 4.1 3.5zM151 72.6a166.6 166.6 0 0 0-47.6 18.8C64.4 114 39 147 42.5 171.1a2.7 2.7 0 1 0 5.3-.8C44.7 149 68.8 117.5 106 96a162 162 0 0 1 46-18.2 2.7 2.7 0 1 0-1.1-5.2z"/><path d="M87.8 187.8c8.9 24.8 23.4 40.1 39.8 40.1 12 0 23-8.1 31.6-22.5a2.7 2.7 0 1 0-4.5-2.7c-7.8 12.9-17.3 19.9-27 19.9-13.7 0-26.7-13.7-35-36.6a2.7 2.7 0 1 0-5 1.8zm81.3-5c4.6-14.6 7-31.6 7-49.3 0-44.2-15.4-82.3-37.4-92a2.7 2.7 0 0 0-2.2 4.8c19.7 8.7 34.3 44.9 34.3 87.2 0 17.1-2.4 33.6-6.8 47.8a2.7 2.7 0 1 0 5 1.6zm50.2-2.5a12.8 12.8 0 1 0-25.5 0 12.8 12.8 0 0 0 25.5 0zm-5.3 0a7.4 7.4 0 1 1-14.9 0 7.4 7.4 0 0 1 14.9 0zM48.5 193a12.8 12.8 0 1 0 0-25.5 12.8 12.8 0 0 0 0 25.5zm0-5.3a7.4 7.4 0 1 1 0-14.9 7.4 7.4 0 0 1 0 15z"/><path d="M127.6 54.4a12.8 12.8 0 1 0 0-25.5 12.8 12.8 0 0 0 0 25.5zm0-5.3a7.4 7.4 0 1 1 0-14.8 7.4 7.4 0 0 1 0 14.8zm2 93.4c-5 1-10-2.1-11-7a9.2 9.2 0 1 1 11 7z"/></g></svg>