<svg xmlns="http://www.w3.org/2000/svg" xmlns:xlink="http://www.w3.org/1999/xlink" viewBox="0 0 787 730"><style>.B{opacity:.1}.C{fill:#00b0ff}.D{fill:#fff}.E{fill:#535461}</style><defs><linearGradient id="A" x1="279" x2="279" y1="470.3" y2="199.6" gradientUnits="userSpaceOnUse"><stop offset="0" stop-color="gray" stop-opacity=".3"/><stop offset=".5" stop-color="gray" stop-opacity=".1"/><stop offset="1" stop-color="gray" stop-opacity=".1"/></linearGradient><linearGradient xlink:href="#A" id="B" x1="191.8" x2="191.8" y1="163" y2="0"/><linearGradient xlink:href="#A" id="C" x1="563.7" x2="563.7" y1="215.5" y2=".9"/><linearGradient xlink:href="#A" id="D" x1="639.9" x2="639.9" y2="255.7"/><linearGradient xlink:href="#A" id="E" x1="585.9" x2="585.9" y1="695.9" y2="565"/><linearGradient xlink:href="#A" id="F" x1="235.3" x2="235.3" y1="696.9" y2="566"/><linearGradient xlink:href="#A" id="G" x1="270.4" x2="270.4" y1="696.9" y2="566"/><linearGradient xlink:href="#A" id="H" x1="319.8" x2="319.8" y1="696.9" y2="561.9"/><path id="I" d="M602 565v131h-33V565h33z"/><path id="J" d="M222 587h32v6h-32z"/><path id="K" d="M598 593h-31v-6h31z"/></defs><path fill="#3f3d56" d="M763 590c0 45-27 61-60 61a84 84 0 0 1-7 0c-30-3-53-19-53-61 0-44 55-99 59-103h1s60 58 60 103z"/><path fill="#f2f2f2" d="m700 644 22-31-22 34v4h-4l2-46v-4l-22-35 22 31v1l2-34-19-35 19 29 2-71v56l19-22-19 27-1 31 18-30-18 34v17l26-41-26 47z"/><path fill="#3f3d56" d="M139 638c0 28-17 37-36 37a49 49 0 0 1-5 0c-17-1-31-11-31-37s33-59 35-61h1s36 34 36 61z"/><path fill="#f2f2f2" d="m101 671 13-19-13 21v2h-3l2-27v-3l-13-21 13 19v1l1-21-11-21 11 17 1-42v33l12-13-12 16v19l10-18-10 20v11l15-25-15 28z"/><path fill="url(#A)" d="M137 200h284v270H137z"/><path d="M143 206h272v258H143z" class="D"/><path d="M153 215h252v239H153z" class="C"/><g fill="#41b883"><path d="M325 269h31l-77 132-77-132h59l18 30 18-30z"/><path d="m202 269 77 132 77-132h-31l-46 79-47-79z"/></g><path fill="#35495e" d="m232 269 47 80 46-80h-28l-18 30-18-30z"/><path fill="url(#B)" d="M5 0h373v163H5z" opacity=".5"/><path d="M10 2h363v156H10z" class="D"/><path d="M21 12h342v136H21z" class="C"/><path d="M305 57h10l-21 28-1 2a52 52 0 0 0-2 7h-10l2-8-2-7-2-7h10l1 5 15-20m-20 5c2 1 3 8 3 8h-20l-5 24h-9l7-31c0-2 2-2 6-2h7l11 1m-40 12a5 5 0 0 0-1-3c-1-2-2-2-5-2-7-1-7 5-7 5zm8-6c1 4-1 13-1 13h-17l-5 1 2 4 3 1h15l-1 8-22-1a7 7 0 0 1-4-2v-1a9 9 0 0 1-1-2c-2-4 0-13 2-17v-2l1-2 1-1a11 11 0 0 1 1-1 14 14 0 0 1 2-2c3-2 9-4 15-3 2 0 6 1 8 4a11 11 0 0 1 1 3zm-40-7h9l-7 33h-10c-7 0-13 1-15-4-3-4 0-12 1-17l2-12h9l-4 18v6l5 1h4l6-25m-39 16 2-9a8 8 0 0 0-4-6c-4-2-9-1-12 2l-4 10v9c2 4 9 3 15 3l3-9zm12-12c1 7-3 15-6 21l5 1-2 8a750 750 0 0 1-12 0c-9 0-17 0-22-4a14 14 0 0 1-3-8 31 31 0 0 1 1-11 34 34 0 0 1 3-9c4-6 11-11 22-10a21 21 0 0 1 7 2l1 1c3 1 5 5 6 9zm-41-4-2 8h-9l2-8h9m-12 11h9l-5 24c-1 5-2 8-5 10l-1 1-4 1a67 67 0 0 1-8 0l2-9c7 1 7-5 9-12l3-15" class="D"/><path fill="#21609b" d="M113 89h-1c-3 7-9 11-17 11a24 24 0 0 1-10-2 26 26 0 0 1-12-12c-3-6-4-16 3-22l-1 1v1c-5 16 11 30 26 28a20 20 0 0 0 12-5m-10-7a15 15 0 0 0 11-4c-3 5-9 8-17 7-7-1-13-7-14-14 0-5 1-8 4-12a12 12 0 0 0-1 4c-1 11 9 19 17 19m10-13-5 4a11 11 0 0 1-13-7c-1-3-1-7 2-9a11 11 0 0 0-1 6 13 13 0 0 0 2 3 9 9 0 0 0 3 4 10 10 0 0 0 2 1c2 0 5 1 10-2"/><path fill="url(#C)" d="M456 1h215v214H456z"/><path d="M462 7h203v202H462z" class="D"/><path d="M472 17h183v183H472z" class="C"/><path fill="#e23237" d="m498 70 66-24 68 23-11 87-57 32-56-31z"/><path fill="#b52e31" d="m632 69-68-23v142l57-31 11-88z"/><path d="m564 63-41 91h15l8-21h37l9 21h15l-43-91zm0 29 14 29h-26l12-29z" class="D"/><path fill="url(#D)" d="M498 256h284v214H498z"/><path d="M504 262h272v202H504z" class="D"/><path d="M514 272h252v182H514z" class="C"/><path d="M564 363c0 11 11 22 29 28-4 18-1 32 9 38s25 2 39-10c14 12 28 16 37 11 10-6 14-21 10-40 19-6 29-15 29-27 0-11-11-21-29-27 4-19 1-33-9-39s-24-1-38 11c-15-13-29-17-39-11-10 5-13 20-9 38-17 6-29 16-29 28z" class="D"/><path fill="#53c1de" d="m684 342-4-2 1-3c3-16 1-29-6-33s-19 0-31 10l-3 4-3-3c-12-11-24-15-31-11-8 4-10 16-7 32l1 4a90 90 0 0 0-5 2c-14 5-23 13-23 21-1 8 9 17 24 22l4 1-1 5c-3 15-1 27 6 31 8 4 20 0 32-11l3-2 3 3c12 10 23 14 30 10 8-4 10-17 7-32l-1-4 3-1c15-5 26-13 26-22 0-8-10-16-25-21z"/><path d="M681 380h-2a136 136 0 0 0-7-17 136 136 0 0 0 6-17 86 86 0 0 1 5 1c12 5 20 11 20 16s-9 12-22 17zm-6 11c2 7 2 13 1 18-1 4-3 7-5 8-4 2-13-1-23-9l-3-3 11-15c6 0 13-1 19-3v4zm-56 25c-4 2-8 2-10 1-4-3-6-12-3-25l1-5 18 3 12 15-3 2c-5 5-11 8-15 9zm-20-37-16-8c-3-3-5-6-5-8 0-5 8-12 20-16l5-1 6 17a142 142 0 0 0-6 17l-4-1zm7-44c-3-14-1-23 3-26 5-2 15 1 26 11l2 2c-5 4-8 9-12 14a142 142 0 0 0-18 3l-1-4zm59 14-5-7 13 3-5 11-3-7zm-24-23a124 124 0 0 1 8 9h-16l8-9zm-24 23-4 7-5-12 13-2-4 7zm4 35a124 124 0 0 1-13-2l5-12 3 7 5 7zm20 16-9-9h17a124 124 0 0 1-8 9zm27-30 5 12a123 123 0 0 1-13 2l5-7 3-7zm-9 4-6 11a175 175 0 0 1-25-1l-6-10q-4-5-6-11 2-6 6-11l6-10a165 165 0 0 1 25 0l7 10 5 11q-2 6-6 11zm13-65c4 3 6 13 3 27l-1 3a139 139 0 0 0-18-3 137 137 0 0 0-11-14l3-3c10-9 19-12 24-10z" class="D"/><path fill="#53c1de" d="M641 351a12 12 0 0 1 8 21 12 12 0 0 1-21-9 12 12 0 0 1 13-12"/><g opacity=".7"><use xlink:href="#I" fill="url(#E)" class="B"/><use xlink:href="#I" x="-35" fill="url(#E)" class="B"/></g><rect width="86.6" height="36.9" x="56" y="661" class="C" rx="14.3"/><g opacity=".7"><path fill="url(#F)" d="M219 566v131h33V566h-33z" class="B"/><path fill="url(#G)" d="M254 566v131h33V566h-33z" class="B"/><path fill="url(#H)" d="m353 688-28-102-1-6-5-18-32 8 5 18 1 5 22 81 1 6 5 17 32-9z" class="B"/></g><path d="M222 569h32v124h-32z" class="E"/><g class="C"><use xlink:href="#J"/><use xlink:href="#J" y="84"/></g><path d="M246 569h8v124h-8z" class="B"/><path d="M255 569h32v124h-32z" class="E"/><g class="C"><use xlink:href="#J" x="33"/><use xlink:href="#J" x="33" y="84"/></g><path d="M279 569h8v124h-8z" class="B"/><path d="m287 573 30-8 32 120-30 8z" class="E"/><path d="m291 590 31-8 1 6-30 8zm22 82 30-8 2 5-30 8z" class="C"/><path d="m310 567 7-2 32 120-7 2z" class="B"/><path d="M598 693h-31V569h31z" class="E"/><g class="C"><use xlink:href="#K"/><use xlink:href="#K" y="84"/></g><path d="M575 693h-8V569h8z" class="B"/><path d="M565 693h-31V569h31z" class="E"/><g class="C"><use xlink:href="#K" x="-33"/><use xlink:href="#K" x="-33" y="84"/></g><path d="M541 693h-7V569h7z" class="B"/><path d="M642 634h114s22 29-13 71h-89s-33-29-12-71z" class="C"/><path d="M756 634H642l-1 2h111s22 28-11 69h2c35-42 13-71 13-71z" class="B"/><path fill="#e0e0e0" d="M0 692h787v27H0zm33 27h721v11H33z"/><path d="M33 719h721v4H33z" class="B"/></svg>