<svg xmlns="http://www.w3.org/2000/svg" viewBox="0 0 135.5 135.5"><defs><linearGradient id="a" x1="28.7" x2="111" y1="8.8" y2="120.7" gradientUnits="userSpaceOnUse"><stop offset="0" stop-color="#4333ac"/><stop offset=".5" stop-color="#528bd7"/><stop offset="1" stop-color="#75cff9"/></linearGradient><filter id="b" width="1.3" height="1.3" x="-.2" y="-.1" color-interpolation-filters="sRGB"><feFlood flood-color="#000" flood-opacity=".5"/><feComposite in2="SourceGraphic" operator="in"/><feGaussianBlur stdDeviation="5"/><feOffset dx="-5" dy="5"/><feComposite in="SourceGraphic"/></filter></defs><path fill="url(#a)" d="M110.1 110q4 6-1.5 10-2.5 1.8-5.4 1.3-3-.5-4.8-3.3L83.1 95.6q-.4-.3-1.7-2.2-1.2-2-2.1-3l-2.2-2.9q-1.5-1.9-3.1-2.7l-3.3-2.3q-1.9-1.2-4.3-1.7-2.2-.5-4.7-.5H35.6v.7q2.6 0 4.8 2 2.4 2.1 2.4 5.4v25.3q0 3.4-1.9 5.5-1.9 2-5.1 2-3.3 0-5.2-2-1.9-2-1.9-5.5v-97q0-3.5 1.9-5.6 1.9-2 5.2-2h34.4Q88.6 9 98 18.7q9.4 9.6 9.4 25.6 0 12-6.3 20.4-6.2 8.2-16.6 12.7 6 4.1 10.4 10.8zm-40-42.6q20.6 0 27-11.2l-.6-.5q-3 5.5-10 6 7-6.2 7-17.2 0-22-25.6-22H35.6v.7q2.4 0 4.8 2 2.4 2.1 2.4 5.4v36.8z" filter="url(#b)"/></svg>